<svg version="1.1" xmlns="http://www.w3.org/2000/svg" xmlns:xlink="http://www.w3.org/1999/xlink" x="0px" y="0px" width="50px" height="50px" viewBox="210 396 50 50" enable-background="new 210 392.598 50 50" xml:space="preserve">
    <defs>
        <filter id="shadow">
            <feOffset result="offOut" in="SourceAlpha" dx="1" dy="1"></feOffset>
            <feGaussianBlur result="blurOut" in="offOut" stdDeviation="1"></feGaussianBlur>
            <feBlend in="SourceGraphic" in2="blurOut" mode="normal"></feBlend>
        </filter>
    </defs>
    <g class="adjustable bg dropShadow" style="fill: #041a4d">
        <path
            d="M234.417,399.941c11.291,0,20.476,9.185,20.476,20.476c0,11.292-9.185,20.475-20.476,20.475   c-11.29,0-20.474-9.185-20.474-20.475C213.943,409.125,223.127,399.941,234.417,399.941z M234.417,397.666   c-12.563,0-22.75,10.187-22.75,22.75c0,12.564,10.188,22.75,22.75,22.75c12.564,0,22.751-10.186,22.751-22.75   C257.168,407.852,246.981,397.666,234.417,397.666z">
        </path>
    </g>
    <g class="adjustable fg dropShadow" style="fill: #ffffff">
        <path
            d="M247.641,410.691c-0.05,0.625-0.599,1.091-1.224,1.043l-1.61-0.129c4.596,5.538,4.117,13.787-1.229,18.727   c-5.526,5.104-14.173,4.761-19.276-0.769c-5.104-5.526-4.759-14.176,0.768-19.281c2.3-2.125,5.288-3.402,8.412-3.594   c0.626-0.039,1.166,0.438,1.203,1.063l0,0c0.04,0.625-0.434,1.165-1.061,1.205c-0.001,0-0.002,0-0.004,0   c-2.602,0.16-5.092,1.225-7.009,2.995c-4.606,4.254-4.893,11.461-0.638,16.069c4.251,4.605,11.456,4.895,16.063,0.638   c4.404-4.066,4.847-10.835,1.154-15.447l-0.001,1.503c0.013,0.627-0.487,1.146-1.114,1.157c-0.627,0.011-1.146-0.488-1.157-1.116   c0-0.015,0-0.028,0-0.042v-4.47c0-0.628,0.51-1.138,1.138-1.137c0.029,0,0.06,0.001,0.089,0.003l4.452,0.354   C247.223,409.516,247.689,410.064,247.641,410.691L247.641,410.691L247.641,410.691z">
        </path>
    </g>
</svg>